<?xml version="1.0" encoding="UTF-8" standalone="no"?>
<!-- Created with Inkscape (http://www.inkscape.org/) -->

<svg
   width="32"
   height="32"
   viewBox="0 0 32 32"
   version="1.1"
   id="SVGRoot"
   inkscape:version="1.3.2 (091e20ef0f, 2023-11-25)"
   sodipodi:docname="vlc.svg"
   xmlns:inkscape="http://www.inkscape.org/namespaces/inkscape"
   xmlns:sodipodi="http://sodipodi.sourceforge.net/DTD/sodipodi-0.dtd"
   xmlns:xlink="http://www.w3.org/1999/xlink"
   xmlns="http://www.w3.org/2000/svg"
   xmlns:svg="http://www.w3.org/2000/svg"
   xmlns:rdf="http://www.w3.org/1999/02/22-rdf-syntax-ns#"
   xmlns:cc="http://creativecommons.org/ns#"
   xmlns:dc="http://purl.org/dc/elements/1.1/">
  <title
     id="title1">vlc</title>
  <defs
     id="defs31">
    <linearGradient
       id="b"
       x1="13"
       x2="42"
       y1="14"
       y2="43"
       gradientUnits="userSpaceOnUse"
       gradientTransform="matrix(0.74999996,0,0,0.74999996,3.4996407,-1.9999982)">
      <stop
         stop-color="#ffb24d"
         offset="0"
         id="stop3" />
      <stop
         stop-color="#ffa733"
         offset=".36206895"
         id="stop4" />
      <stop
         stop-color="#f28100"
         offset="1"
         id="stop5" />
    </linearGradient>
    <linearGradient
       id="c"
       x1="23"
       x2="42"
       y1="25"
       y2="44"
       gradientUnits="userSpaceOnUse"
       gradientTransform="matrix(0.74999996,0,0,0.74999996,3.4996407,-1.9999982)">
      <stop
         stop-color="#e5840b"
         offset="0"
         id="stop6" />
      <stop
         stop-color="#f27a00"
         offset="1"
         id="stop7" />
    </linearGradient>
    <linearGradient
       id="f"
       x1="16"
       x2="34"
       y1="22"
       y2="28"
       gradientUnits="userSpaceOnUse"
       gradientTransform="matrix(0.74999996,0,0,0.74999996,3.4996407,-1.9999982)">
      <stop
         stop-color="#ffb24d"
         offset="0"
         id="stop8" />
      <stop
         stop-color="#ffa733"
         offset=".15737528"
         id="stop9" />
      <stop
         stop-color="#f28100"
         offset="1"
         id="stop10" />
    </linearGradient>
    <linearGradient
       id="d"
       x1="15"
       x2="25"
       y1="27"
       y2="37"
       gradientUnits="userSpaceOnUse"
       xlink:href="#a"
       gradientTransform="matrix(0.74999996,0,0,0.74999996,3.4996407,-1.9999982)" />
    <linearGradient
       id="a">
      <stop
         stop-color="#fff"
         offset="0"
         id="stop1" />
      <stop
         stop-color="#f5f5f5"
         offset="1"
         id="stop2" />
    </linearGradient>
    <linearGradient
       id="e"
       x1="19"
       x2="27"
       y1="13"
       y2="21"
       gradientUnits="userSpaceOnUse"
       xlink:href="#a"
       gradientTransform="matrix(0.74999996,0,0,0.74999996,3.4996407,-1.9999982)" />
  </defs>
  <sodipodi:namedview
     id="base"
     pagecolor="#ffffff"
     bordercolor="#000000"
     borderopacity="0.29803922"
     inkscape:pageopacity="0.0"
     inkscape:pageshadow="2"
     inkscape:zoom="8"
     inkscape:cx="28.75"
     inkscape:cy="18"
     inkscape:document-units="px"
     inkscape:current-layer="layer1"
     inkscape:pagecheckerboard="0"
     showgrid="true"
     units="px"
     inkscape:window-width="1920"
     inkscape:window-height="1009"
     inkscape:window-x="0"
     inkscape:window-y="0"
     inkscape:window-maximized="1"
     inkscape:showpageshadow="2"
     inkscape:deskcolor="#f3f3f3">
    <inkscape:grid
       type="xygrid"
       id="grid18"
       originx="18.750256"
       originy="-0.99999982"
       spacingy="1"
       spacingx="1"
       units="px"
       visible="true" />
  </sodipodi:namedview>
  <metadata
     id="metadata34">
    <rdf:RDF>
      <cc:Work
         rdf:about="">
        <dc:format>image/svg+xml</dc:format>
        <dc:type
           rdf:resource="http://purl.org/dc/dcmitype/StillImage" />
        <dc:title>vlc</dc:title>
        <dc:date>2323-11-09</dc:date>
        <dc:creator>
          <cc:Agent>
            <dc:title>ruru</dc:title>
          </cc:Agent>
        </dc:creator>
        <dc:description>icona 64x64 sfondo bianco</dc:description>
      </cc:Work>
    </rdf:RDF>
  </metadata>
  <g
     inkscape:label="Layer 1"
     inkscape:groupmode="layer"
     id="layer1"
     transform="translate(18.750256,-0.99999982)">
    <rect
       style="fill:none;stroke-width:0.457143;stroke:none"
       id="rect1"
       width="32"
       height="32"
       x="-18.750256"
       y="0.99999982" />
    <g
       id="g1"
       transform="translate(-24.250075,0.9999999)">
      <path
         d="m 11.74964,19.750001 a 0.75007496,0.75007496 0 0 0 -0.716308,0.528808 l -3,9.750001 A 0.75007496,0.75007496 0 0 0 8.7496404,31 H 34.249639 a 0.75007496,0.75007496 0 0 0 0.71631,-0.97119 l -3.000001,-9.750001 a 0.75007496,0.75007496 0 0 0 -0.716309,-0.528808 z"
         fill="url(#b)"
         id="path10"
         style="fill:url(#b);stroke-width:0.75"
         clip-path="none" />
      <path
         d="m 17.74964,19.750001 -3.84082,3.84082 6.659179,6.659179 h 14.43164 a 0.75007496,0.75007496 0 0 0 -0.03369,-0.221191 l -3,-9.75 a 0.75007496,0.75007496 0 0 0 -0.71631,-0.528808 h -1.5 z"
         fill="url(#c)"
         id="path11"
         style="fill:url(#c);stroke-width:0.75"
         clip-path="none" />
      <path
         d="M 21.49671,1.0000016 A 2.2502249,2.2502249 0 0 0 19.356573,2.5644551 L 13.356574,21.314454 a 2.2502249,2.2502249 0 0 0 0.993164,2.61914 C 16.506829,25.216359 19.234975,25.75 21.49964,25.75 c 2.264664,0 4.992811,-0.533641 7.149902,-1.816406 a 2.2502249,2.2502249 0 0 0 0.993164,-2.61914 l -6,-18.7499989 A 2.2502249,2.2502249 0 0 0 21.49671,1.0000016 Z"
         fill="url(#f)"
         id="path12"
         style="fill:url(#f);stroke-width:0.75"
         clip-path="none" />
      <path
         d="m 28.57337,17.97461 c -2.145202,1.251188 -4.834962,1.775391 -7.07373,1.775391 -2.238768,0 -4.928529,-0.524203 -7.073731,-1.775391 l -1.069335,3.339844 a 2.2502249,2.2502249 0 0 0 0.993164,2.61914 C 16.506829,25.216359 19.234975,25.75 21.49964,25.75 c 2.264664,0 4.992811,-0.533641 7.149902,-1.816406 a 2.2502249,2.2502249 0 0 0 0.993164,-2.61914 z"
         fill="url(#d)"
         id="path13"
         style="fill:url(#d);stroke-width:0.75"
         clip-path="none" />
      <path
         d="M 17.837531,7.3090831 14.425909,17.97461 16.091437,12.77002 c 1.774553,0.682143 3.720245,0.979981 5.408203,0.979981 1.687958,0 3.63365,-0.297838 5.408203,-0.979981 L 28.57337,17.97461 25.161749,7.3090831 c -1.250129,0.3016462 -2.515341,0.4409182 -3.662109,0.4409182 -1.146768,0 -2.411981,-0.139272 -3.662109,-0.4409182 z"
         fill="url(#e)"
         id="path14"
         style="fill:url(#e);stroke-width:0.75"
         clip-path="none" />
      <path
         d="M 8.0011053,30.25 A 0.75007496,0.75007496 0 0 0 8.7496404,31 H 34.249639 a 0.75007496,0.75007496 0 0 0 0.75,-0.75 z"
         fill="#d97716"
         id="path15"
         style="stroke-width:0.75"
         clip-path="none" />
    </g>
  </g>
</svg>
